<?xml version="1.0" encoding="UTF-8" standalone="no"?>
<!-- Created with Inkscape (http://www.inkscape.org/) -->

<svg class="wifi-1"
   xmlns:dc="http://purl.org/dc/elements/1.1/"
   xmlns:cc="http://creativecommons.org/ns#"
   xmlns:rdf="http://www.w3.org/1999/02/22-rdf-syntax-ns#"
   xmlns:svg="http://www.w3.org/2000/svg"
   xmlns="http://www.w3.org/2000/svg"
   xmlns:sodipodi="http://sodipodi.sourceforge.net/DTD/sodipodi-0.dtd"
   xmlns:inkscape="http://www.inkscape.org/namespaces/inkscape"
   id="svg3348"
   version="1.1"
   inkscape:version="0.91 r13725"
   width="195"
   height="140"
   viewBox="0 0 195 140"
   sodipodi:docname="2.svg">
  <metadata
     id="metadata3354">
    <rdf:RDF>
      <cc:Work
         rdf:about="">
        <dc:format>image/svg+xml</dc:format>
        <dc:type
           rdf:resource="http://purl.org/dc/dcmitype/StillImage" />
        <dc:title></dc:title>
      </cc:Work>
    </rdf:RDF>
  </metadata>
  <defs
     id="defs3352" />
  <sodipodi:namedview
     pagecolor="#ffffff"
     bordercolor="#666666"
     borderopacity="1"
     objecttolerance="10"
     gridtolerance="10"
     guidetolerance="10"
     inkscape:pageopacity="0"
     inkscape:pageshadow="2"
     inkscape:window-width="1366"
     inkscape:window-height="746"
     id="namedview3350"
     showgrid="false"
     inkscape:snap-bbox="true"
     inkscape:snap-grids="true"
     inkscape:object-paths="true"
     inkscape:snap-nodes="false"
     inkscape:snap-object-midpoints="true"
     inkscape:zoom="3.3714286"
     inkscape:cx="93.348164"
     inkscape:cy="73.753895"
     inkscape:window-x="-8"
     inkscape:window-y="-8"
     inkscape:window-maximized="1"
     inkscape:current-layer="svg3348"
     inkscape:snap-global="true" />
  <path
     style="fill:#000000"
          class="wifi5"
     d="m 81.532556,120.54956 -14.94245,-14.9674 c 0,0 1.447893,-1.8698 2.3953,-2.54967 6.246006,-4.482224 13.08712,-8.168161 20.98032,-9.578751 11.553454,-2.06472 25.337524,1.4324 34.517634,8.757381 l 3.50351,2.79552 c 0,0 -10.11136,10.21326 -15.23133,15.25516 -5.20875,5.12932 -15.467414,15.25515 -15.755944,15.25515 -0.28853,0 -7.2487,-6.73533 -15.46704,-14.96739 z"
     id="path3422" />
  <path
     style="fill:#000000"
          class="wifi"
     d="m 57.506006,95.914349 -6.84254,-7.61511 3.91827,-3.40602 c 4.88294,-4.244564 20.09955,-11.743844 27.41826,-13.51268 7.71782,-1.865294 24.061314,-1.589795 31.913424,0.537959 8.23266,2.230876 18.25069,7.289227 24.99605,12.621121 l 5.3167,4.20261 -7.19518,7.24352 -7.19517,7.243511 -6.33551,-4.248421 c -9.39539,-6.30029 -15.11651,-7.97513 -27.000314,-7.90423 -12.60017,0.0752 -17.80258,1.96684 -30.07572,10.935941 -1.97409,1.44264 -2.41075,1.14406 -8.91827,-6.098201 z"
     id="path3420" />
  <path
     style="fill:#000000"
          class="wifi"
     d="m 41.525106,79.542245 -6.92126,-6.974704 2.44808,-2.619153 c 4.11082,-4.39809 18.04715,-13.131202 26.10143,-16.356293 12.44413,-4.982868 19.99902,-6.417364 33.84664,-6.426673 22.938294,-0.01542 43.338524,7.482923 58.579534,21.531602 l 4.52158,4.167844 -6.77374,6.82604 c -3.72555,3.754321 -7.27856,6.826041 -7.89556,6.826041 -0.61701,0 -1.9602,-0.92638 -2.98487,-2.05863 -3.41678,-3.775505 -15.85198,-10.777749 -23.94516,-13.483494 -15.39209,-5.145941 -34.275034,-4.261973 -48.869744,2.287742 -3.34801,1.5025 -9.38721,5.099395 -13.42043,7.993102 -4.03322,2.8937 -7.43036,5.26128 -7.54919,5.26128 -0.11883,0 -3.33062,-3.13862 -7.13731,-6.974704 z"
     id="path3418" />
  <path
     style="fill:#000000"
          class="wifi"
     d="m 25.263906,63.266949 -7.18604,-7.25 6.46002,-5.5 C 66.958646,14.400349 129.76088,15.11878 171.82779,52.201883 l 4.3278,3.815066 -6.86682,7.417936 -6.86681,7.417936 -8.68552,-6.627033 C 143.57977,56.476271 131.5995,50.409937 120.44602,47.368837 109.55926,44.400462 85.881676,44.161847 75.584466,46.916738 c -14.3244,3.832315 -32.47892,13.48486 -39.50878,21.006354 -1.33337,1.426621 -2.69463,2.593857 -3.02503,2.593857 -0.33039,0 -3.83443,-3.2625 -7.78675,-7.25 z"
     id="path3416" />
  <path
     style="fill:#000000"
     class="wifi"
     d="m 9.0650559,47.082441 -7.257484,-7.306245 7.012714,-6.035661 C 27.048916,18.051634 48.690126,7.5955501 72.730096,2.8621121 c 12.01734,-2.36619795 36.570654,-2.35635195 48.643904,0.0195 24.78631,4.877625 47.65951,15.9486829 64.45058,31.1952889 l 6.32459,5.74284 -7.21045,7.258891 -7.21044,7.258891 -6.47843,-5.495817 C 128.51961,12.592518 70.000522,10.707251 26.160118,46.383175 l -9.837582,8.00551 z"
     id="path3358" />
</svg>
